<svg xmlns="http://www.w3.org/2000/svg" viewBox="0 0 64 64" role="img" aria-label="मातोश्री शिवगर्जना मंडळ">
  <defs>
    <radialGradient id="fav-maroon" cx="0.5" cy="0.32" r="0.9">
      <stop offset="0" stop-color="#7a1530"/>
      <stop offset="1" stop-color="#2a0712"/>
    </radialGradient>
    <linearGradient id="fav-gold" x1="0" y1="0" x2="1" y2="1">
      <stop offset="0" stop-color="#f2d888"/>
      <stop offset="0.5" stop-color="#e6c868"/>
      <stop offset="1" stop-color="#c9a227"/>
    </linearGradient>
  </defs>
  <circle cx="32" cy="32" r="32" fill="url(#fav-maroon)"/>
  <circle cx="32" cy="32" r="28.5" fill="none" stroke="url(#fav-gold)" stroke-width="2.4"/>
  <circle cx="32" cy="32" r="23" fill="none" stroke="url(#fav-gold)" stroke-width="1" opacity="0.5"/>
  <path d="M28.575685339690107 34.350417163289634Q29.62932061978546 35.48510131108463 30.338498212157333 35.93087008343266Q31.047675804529202 36.37663885578069 31.898688915375445 36.37663885578069Q32.70917759237187 36.37663885578069 33.37783075089392 35.910607866507746Q34.04648390941597 35.4445768772348 34.735399284862936 34.269368295589985L35.87008343265792 32.36471990464839Q37.20738974970203 30.135876042908222 38.76758045292014 29.143027413587603Q40.32777115613826 28.150178784266984 42.718712753277714 28.150178784266984Q44.58283671036949 28.150178784266984 45.98092967818832 29.00119189511323Q47.37902264600715 29.852205005959476 48.18951132300357 31.554231227651968Q49.0 33.25625744934446 49.0 35.80929678188319Q49.0 38.24076281287247 48.16924910607867 39.98331346841478Q47.33849821215733 41.725864123957095 45.81883194278903 42.657926102502984Q44.29916567342074 43.589988081048865 42.151370679380214 43.589988081048865Q40.165673420738976 43.589988081048865 38.68653158522051 42.880810488677Q37.20738974970203 42.17163289630513 36.03218116805721 41.03694874851013L37.93682955899881 38.76758045292014Q38.82836710369487 39.61859356376639 39.80095351609059 40.165673420738976Q40.773539928486294 40.71275327771156 42.02979737783075 40.71275327771156Q43.44815256257449 40.71275327771156 44.6030989272944 39.537544696066746Q45.7580452920143 38.36233611442193 45.7580452920143 35.76877234803337Q45.7580452920143 33.58045292014303 44.94755661501788 32.30393325387366Q44.13706793802146 31.02741358760429 42.475566150178786 31.02741358760429Q41.17878426698451 31.02741358760429 40.287246722288444 31.716328963051247Q39.39570917759237 32.40524433849821 38.463647199046484 34.06674612634088L37.45053635280095 35.849821215733016Q36.59952324195471 37.3492252681764 35.42431466030989 38.281287246722286Q34.24910607866508 39.213349225268175 32.34445768772348 39.213349225268175Q31.088200238379024 39.213349225268175 30.176400476758047 38.848629320619786Q29.264600715137068 38.4839094159714 28.595947556615016 37.835518474374254Q27.927294398092968 37.18712753277711 27.31942789034565 36.29558998808105ZM25.941597139451726 24.70560190703218Q28.251489868891536 24.70560190703218 29.69010727056019 25.516090584028603Q31.12872467222884 26.326579261025028 31.777115613825984 27.64362336114422Q32.42550655542313 28.96066746126341 32.42550655542313 30.541120381406436Q32.42550655542313 33.37783075089392 30.338498212157333 35.160905840286055Q28.251489868891536 36.94398092967819 23.42908224076281 37.3492252681764L22.780691299165674 34.471990464839095Q25.33373063170441 34.147794994040524 26.711561382598333 33.64123957091776Q28.089392133492254 33.13468414779499 28.63647199046484 32.36471990464839Q29.183551847437425 31.594755661501786 29.183551847437425 30.500595947556615Q29.183551847437425 29.163289630512516 28.33253873659118 28.373063170441Q27.481525625744933 27.582836710369488 25.820023837902262 27.582836710369488Q24.44219308700834 27.582836710369488 23.12514898688915 27.9880810488677Q21.80810488676996 28.393325387365913 20.511323003575683 29.203814064362334L19.457687723480333 26.36710369487485Q20.876042908224075 25.556615017878425 22.476758045292016 25.131108462455302Q24.077473182359952 24.70560190703218 25.941597139451726 24.70560190703218ZM33.07389749702026 41.56376638855781Q33.07389749702026 43.54946364719905 32.18235995232419 44.94755661501788Q31.290822407628127 46.345649582836714 29.730631704410012 47.07508939213349Q28.170441001191897 47.80452920143028 26.184743742550655 47.80452920143028Q23.75327771156138 47.80452920143028 21.828367103694873 46.730631704410015Q19.903456495828365 45.656734207389746 18.241954707985695 43.164481525625746Q16.580452920143024 40.67222884386174 14.999999999999998 36.37663885578069L17.877234803337306 35.20143027413587Q19.538736591179976 39.94278903456496 21.40286054827175 42.39451728247914Q23.266984505363524 44.846245530393325 25.901072705601905 44.846245530393325Q27.68414779499404 44.846245530393325 28.778307508939214 43.893921334922524Q29.872467222884385 42.94159713945173 29.872467222884385 41.19904648390941Q29.872467222884385 39.415971394517285 28.575685339690104 38.098927294398095Q27.278903456495826 36.781883194278905 25.6984505363528 35.89034564958284L27.481525625744933 35.36352800953516L28.494636471990464 34.99880810488677Q29.06197854588796 35.4445768772348 29.75089392133492 36.09296781883194Q30.43980929678188 36.74135876042908 30.845053635280095 37.3492252681764L31.69606674612634 38.119189511323Q32.3849821215733 38.8891537544696 32.72943980929678 39.76042908224076Q33.07389749702026 40.63170441001192 33.07389749702026 41.56376638855781ZM35.910607866507746 18.18116805721096Q35.910607866507746 17.330154946364715 36.49821215733016 16.76281287246722Q37.08581644815256 16.195470798569723 37.896305125148984 16.195470798569723Q38.70679380214541 16.195470798569723 39.29439809296782 16.76281287246722Q39.88200238379022 17.330154946364715 39.88200238379022 18.18116805721096Q39.88200238379022 19.03218116805721 39.29439809296782 19.61978545887962Q38.70679380214541 20.207389749702024 37.896305125148984 20.207389749702024Q37.08581644815256 20.207389749702024 36.49821215733016 19.61978545887962Q35.910607866507746 19.03218116805721 35.910607866507746 18.18116805721096ZM45.51489868891538 18.140643623361143Q44.785458879618595 21.949940405244337 42.82002383790227 23.489868891537544Q40.854588796185936 25.02979737783075 37.896305125148984 25.02979737783075Q34.93802145411204 25.02979737783075 32.972586412395714 23.489868891537544Q31.00715137067938 21.949940405244337 30.2777115613826 18.140643623361143L33.07389749702026 17.24910607866508Q33.519666269368294 20.207389749702024 34.75566150178784 21.321811680572107Q35.99165673420739 22.43623361144219 37.896305125148984 22.43623361144219Q39.80095351609059 22.43623361144219 41.05721096543505 21.321811680572107Q42.3134684147795 20.207389749702024 42.718712753277714 17.24910607866508Z" fill="url(#fav-gold)"/>
</svg>
